<?xml version="1.0" standalone="no"?>
<!DOCTYPE svg PUBLIC "-//W3C//DTD SVG 20010904//EN"
 "http://www.w3.org/TR/2001/REC-SVG-20010904/DTD/svg10.dtd">
<svg version="1.0" xmlns="http://www.w3.org/2000/svg"
 width="1008.000000pt" height="1008.000000pt" viewBox="0 0 1008.000000 1008.000000"
 preserveAspectRatio="xMidYMid meet">
<metadata>
Created by potrace 1.11, written by Peter Selinger 2001-2013
</metadata>
<g transform="translate(0.000000,1008.000000) scale(0.100000,-0.100000)"
fill="#000000" stroke="none">
<path d="M1786 9103 c65 -114 98 -168 108 -175 6 -4 7 -8 2 -8 -4 0 0 -12 10
-27 10 -16 32 -53 50 -83 17 -30 72 -126 123 -214 50 -87 91 -162 91 -167 0
-5 4 -9 9 -9 5 0 11 -8 15 -17 3 -10 10 -25 15 -33 31 -50 91 -152 91 -155 0
-2 20 -38 45 -79 25 -42 45 -81 45 -86 0 -6 3 -10 8 -10 4 0 18 -23 31 -50 14
-28 29 -50 33 -50 4 0 7 -3 6 -7 -2 -5 8 -26 21 -48 14 -22 30 -49 36 -60 42
-74 67 -118 101 -175 21 -36 37 -67 37 -70 -1 -3 4 -12 11 -20 7 -8 24 -35 37
-60 13 -25 26 -47 29 -50 6 -6 26 -42 49 -85 9 -16 18 -32 21 -35 3 -3 16 -25
29 -50 13 -25 44 -78 68 -117 23 -40 43 -77 43 -83 0 -5 4 -10 9 -10 5 0 11
-8 14 -17 6 -19 48 -93 91 -161 14 -23 26 -44 26 -47 0 -2 18 -34 40 -70 22
-36 40 -70 40 -75 0 -6 5 -10 11 -10 5 0 8 -4 4 -9 -3 -5 -1 -12 4 -15 5 -4
21 -27 35 -53 29 -51 29 -50 -26 -143 -105 -179 -208 -361 -208 -370 0 -5 -3
-10 -8 -10 -4 0 -18 -21 -32 -47 -13 -27 -39 -72 -58 -101 -18 -28 -36 -60
-39 -70 -4 -9 -21 -39 -38 -67 -18 -27 -49 -81 -70 -120 -21 -38 -41 -72 -44
-75 -4 -3 -15 -21 -25 -40 -25 -51 -78 -144 -85 -150 -3 -3 -15 -23 -26 -45
-11 -22 -28 -53 -38 -68 -28 -41 -77 -129 -83 -149 -4 -10 -10 -18 -15 -18 -5
0 -9 -4 -9 -10 0 -5 -17 -38 -39 -73 -21 -35 -42 -73 -45 -85 -4 -12 -12 -22
-17 -22 -5 0 -9 -4 -9 -9 0 -5 -29 -59 -65 -121 -36 -62 -65 -116 -65 -121 0
-5 -4 -9 -10 -9 -5 0 -10 -4 -10 -9 0 -13 -262 -465 -272 -469 -4 -2 -8 -12
-8 -22 0 -10 -5 -22 -11 -25 -5 -4 -14 -17 -19 -28 -6 -12 -21 -40 -35 -62
-14 -22 -28 -47 -32 -55 -4 -8 -26 -46 -48 -85 -23 -38 -53 -90 -67 -115 -14
-25 -50 -85 -79 -135 -29 -49 -62 -108 -74 -130 -61 -109 -79 -140 -86 -145
-3 -3 -9 -15 -13 -27 -4 -13 -13 -29 -20 -35 -6 -7 -20 -29 -29 -48 -10 -19
-29 -53 -43 -75 -14 -22 -27 -48 -31 -58 -3 -9 -9 -17 -14 -17 -5 0 -8 -3 -7
-8 1 -4 -5 -18 -14 -32 -35 -55 -158 -273 -158 -281 0 -4 -4 -9 -8 -11 -4 -1
-25 -34 -47 -73 -48 -88 -67 -122 -80 -143 -5 -9 -34 -60 -64 -112 -30 -52
-59 -97 -63 -98 -4 -2 -6 -7 -3 -12 3 -4 -2 -13 -10 -20 -8 -7 -15 -16 -15
-20 0 -5 -29 -58 -65 -119 -36 -60 -65 -114 -65 -120 0 -6 -4 -11 -9 -11 -5 0
-11 -8 -14 -17 -4 -10 -18 -38 -33 -63 -15 -25 -35 -59 -45 -77 -10 -17 -28
-49 -41 -70 -13 -21 -35 -59 -48 -85 -14 -27 -28 -48 -32 -48 -5 0 -8 -4 -8
-9 0 -7 -30 -62 -121 -221 -8 -14 -18 -28 -24 -32 -5 -4 -6 -8 -2 -8 5 0 -1
-12 -12 -26 -12 -15 -21 -33 -21 -40 0 -8 -4 -14 -10 -14 -5 0 -10 -4 -10 -9
0 -5 -36 -69 -79 -144 -43 -74 -90 -154 -104 -178 -13 -24 -34 -61 -47 -81
l-22 -38 4162 0 4162 0 -25 43 c-14 23 -35 60 -47 82 -12 22 -25 42 -29 45 -3
3 -14 21 -23 40 -19 37 -52 95 -99 173 -16 26 -29 49 -29 51 0 2 -18 34 -40
70 -22 36 -40 70 -40 76 0 5 -4 10 -8 10 -4 0 -13 12 -20 28 -14 31 -54 104
-62 112 -9 9 -30 44 -40 67 -5 12 -22 41 -37 65 -15 24 -28 45 -28 48 0 3 -8
16 -16 30 -36 56 -129 219 -129 226 0 4 -6 15 -14 23 -7 9 -27 41 -43 71 -16
30 -44 80 -62 110 -39 67 -39 65 -95 164 -26 43 -46 83 -46 87 0 5 -4 9 -10 9
-5 0 -10 6 -10 14 0 7 -7 19 -15 26 -9 7 -13 15 -10 18 3 3 1 10 -4 16 -17 21
-171 288 -171 297 0 5 -4 9 -8 9 -4 0 -13 12 -19 28 -7 15 -17 34 -22 42 -25
36 -129 219 -142 248 -8 18 -17 32 -21 32 -5 0 -8 7 -8 15 0 8 -4 15 -10 15
-5 0 -10 5 -10 11 0 6 -23 49 -51 96 -56 95 -56 85 1 181 39 65 213 368 229
397 9 16 18 32 21 35 3 3 11 16 18 29 8 13 23 40 35 60 11 20 30 54 43 77 12
22 33 58 46 80 14 21 38 64 55 94 50 90 77 135 86 141 5 3 7 8 6 10 -2 2 15
36 38 74 22 39 48 84 57 100 9 17 30 53 47 80 16 28 35 61 42 75 6 14 15 27
18 30 4 3 21 32 38 65 18 33 45 80 60 105 15 25 42 72 60 105 18 33 36 62 40
65 3 3 22 35 41 73 19 37 37 67 40 67 3 0 11 15 19 33 8 17 25 49 38 70 14 22
35 58 48 80 12 23 114 200 225 392 112 193 209 361 217 375 36 64 191 334 213
370 68 114 100 171 100 180 0 5 5 10 10 10 6 0 10 4 10 9 0 5 22 47 48 93 27
46 55 94 63 108 8 14 16 27 19 30 3 3 13 21 24 40 56 105 80 147 91 160 7 8
18 30 26 48 8 17 17 32 21 32 5 0 8 6 8 14 0 7 7 19 15 26 8 7 12 16 9 21 -3
5 0 9 5 9 6 0 11 4 11 9 0 4 29 59 65 120 36 62 65 116 65 122 0 5 4 9 9 9 5
0 14 12 20 28 11 27 31 63 42 72 3 3 12 21 21 40 9 19 28 52 42 73 14 21 26
40 26 42 0 5 82 148 100 175 6 8 13 22 17 30 4 8 26 48 50 88 24 40 43 77 43
81 0 5 3 11 8 13 4 2 18 23 31 48 14 25 48 85 78 133 29 49 53 90 53 93 0 2
18 34 40 70 22 36 40 67 40 69 0 2 26 47 58 102 32 54 70 118 84 143 14 25 35
62 48 83 l22 37 -4161 0 -4162 0 27 -47z"/>
</g>
</svg>
